<svg xmlns="http://www.w3.org/2000/svg" width="980" height="680" viewBox="0 0 980 680" role="img"><rect width="100%" height="100%" fill="#f7f3eb"/><rect x="22" y="22" width="936" height="636" rx="20" fill="#fffdf8" stroke="#d9cfbd"/><text x="44" y="60" font-size="28" font-family="Segoe UI, Arial, sans-serif" fill="#1f2933">Error Profile Radar</text><text x="44" y="88" font-size="14" font-family="Segoe UI, Arial, sans-serif" fill="#5b6570">For false rates, lower is better. Outer area means larger value.</text><polygon points="490.0,318.0 529.9,347.0 514.7,394.0 465.3,394.0 450.1,347.0" fill="none" stroke="#e8dfd0" stroke-width="1"/><text x="496" y="322.0" font-size="11" font-family="Segoe UI, Arial, sans-serif" fill="#7b8794">0.2</text><polygon points="490.0,276.0 569.9,334.0 539.4,428.0 440.6,428.0 410.1,334.0" fill="none" stroke="#e8dfd0" stroke-width="1"/><text x="496" y="280.0" font-size="11" font-family="Segoe UI, Arial, sans-serif" fill="#7b8794">0.4</text><polygon points="490.0,234.0 609.8,321.1 564.1,461.9 415.9,461.9 370.2,321.1" fill="none" stroke="#e8dfd0" stroke-width="1"/><text x="496" y="238.0" font-size="11" font-family="Segoe UI, Arial, sans-serif" fill="#7b8794">0.6</text><polygon points="490.0,192.0 649.8,308.1 588.7,495.9 391.3,495.9 330.2,308.1" fill="none" stroke="#e8dfd0" stroke-width="1"/><text x="496" y="196.0" font-size="11" font-family="Segoe UI, Arial, sans-serif" fill="#7b8794">0.8</text><polygon points="490.0,150.0 689.7,295.1 613.4,529.9 366.6,529.9 290.3,295.1" fill="none" stroke="#e8dfd0" stroke-width="1"/><text x="496" y="154.0" font-size="11" font-family="Segoe UI, Arial, sans-serif" fill="#7b8794">1.0</text><line x1="490" y1="360" x2="490.0" y2="150.0" stroke="#ddd3c2"/><text x="490.0" y="150.0" text-anchor="middle" font-size="14" font-family="Segoe UI, Arial, sans-serif" fill="#243b53">Precision</text><line x1="490" y1="360" x2="689.7" y2="295.1" stroke="#ddd3c2"/><text x="689.7" y="295.1" text-anchor="start" font-size="14" font-family="Segoe UI, Arial, sans-serif" fill="#243b53">Recall</text><line x1="490" y1="360" x2="613.4" y2="529.9" stroke="#ddd3c2"/><text x="613.4" y="529.9" text-anchor="start" font-size="14" font-family="Segoe UI, Arial, sans-serif" fill="#243b53">F1</text><line x1="490" y1="360" x2="366.6" y2="529.9" stroke="#ddd3c2"/><text x="366.6" y="529.9" text-anchor="end" font-size="14" font-family="Segoe UI, Arial, sans-serif" fill="#243b53">False Merge</text><line x1="490" y1="360" x2="290.3" y2="295.1" stroke="#ddd3c2"/><text x="290.3" y="295.1" text-anchor="end" font-size="14" font-family="Segoe UI, Arial, sans-serif" fill="#243b53">False Split</text><polygon points="490.0,248.0 667.5,302.3 572.3,473.3 424.2,450.6 312.5,302.3" fill="#1d4ed8" fill-opacity="0.18" stroke="#1d4ed8" stroke-width="3"/><circle cx="490.0" cy="248.0" r="4" fill="#1d4ed8"/><circle cx="667.5" cy="302.3" r="4" fill="#1d4ed8"/><circle cx="572.3" cy="473.3" r="4" fill="#1d4ed8"/><circle cx="424.2" cy="450.6" r="4" fill="#1d4ed8"/><circle cx="312.5" cy="302.3" r="4" fill="#1d4ed8"/><polygon points="490.0,192.0 578.8,331.2 560.5,457.1 391.3,495.9 401.2,331.2" fill="#c2410c" fill-opacity="0.18" stroke="#c2410c" stroke-width="3"/><circle cx="490.0" cy="192.0" r="4" fill="#c2410c"/><circle cx="578.8" cy="331.2" r="4" fill="#c2410c"/><circle cx="560.5" cy="457.1" r="4" fill="#c2410c"/><circle cx="391.3" cy="495.9" r="4" fill="#c2410c"/><circle cx="401.2" cy="331.2" r="4" fill="#c2410c"/><polygon points="490.0,202.5 556.6,338.4 547.0,438.4 397.4,487.4 423.4,338.4" fill="#0f766e" fill-opacity="0.18" stroke="#0f766e" stroke-width="3"/><circle cx="490.0" cy="202.5" r="4" fill="#0f766e"/><circle cx="556.6" cy="338.4" r="4" fill="#0f766e"/><circle cx="547.0" cy="438.4" r="4" fill="#0f766e"/><circle cx="397.4" cy="487.4" r="4" fill="#0f766e"/><circle cx="423.4" cy="338.4" r="4" fill="#0f766e"/><polygon points="490.0,234.0 556.6,338.4 542.9,432.8 415.9,461.9 423.4,338.4" fill="#1d4ed8" fill-opacity="0.18" stroke="#1d4ed8" stroke-width="3"/><circle cx="490.0" cy="234.0" r="4" fill="#1d4ed8"/><circle cx="556.6" cy="338.4" r="4" fill="#1d4ed8"/><circle cx="542.9" cy="432.8" r="4" fill="#1d4ed8"/><circle cx="415.9" cy="461.9" r="4" fill="#1d4ed8"/><circle cx="423.4" cy="338.4" r="4" fill="#1d4ed8"/><polygon points="490.0,310.0 601.0,323.9 531.1,416.6 460.6,400.5 379.0,323.9" fill="#c2410c" fill-opacity="0.18" stroke="#c2410c" stroke-width="3"/><circle cx="490.0" cy="310.0" r="4" fill="#c2410c"/><circle cx="601.0" cy="323.9" r="4" fill="#c2410c"/><circle cx="531.1" cy="416.6" r="4" fill="#c2410c"/><circle cx="460.6" cy="400.5" r="4" fill="#c2410c"/><circle cx="379.0" cy="323.9" r="4" fill="#c2410c"/><rect x="740" y="139" width="14" height="14" rx="3" fill="#1d4ed8"/><text x="762" y="150" font-size="13" font-family="Segoe UI, Arial, sans-serif" fill="#334e68">Soundex</text><rect x="740" y="167" width="14" height="14" rx="3" fill="#c2410c"/><text x="762" y="178" font-size="13" font-family="Segoe UI, Arial, sans-serif" fill="#334e68">Levenshtein</text><rect x="740" y="195" width="14" height="14" rx="3" fill="#0f766e"/><text x="762" y="206" font-size="13" font-family="Segoe UI, Arial, sans-serif" fill="#334e68">SequenceMatcher</text><rect x="740" y="223" width="14" height="14" rx="3" fill="#1d4ed8"/><text x="762" y="234" font-size="13" font-family="Segoe UI, Arial, sans-serif" fill="#334e68">Name And Context</text><rect x="740" y="251" width="14" height="14" rx="3" fill="#c2410c"/><text x="762" y="262" font-size="13" font-family="Segoe UI, Arial, sans-serif" fill="#334e68">spaCy</text></svg>