<svg xmlns="http://www.w3.org/2000/svg" width="980" height="520" viewBox="0 0 980 520" role="img"><rect width="100%" height="100%" fill="#f5efe4"/><rect x="22" y="22" width="936" height="476" rx="20" fill="#fffdf8" stroke="#d9cfbd"/><text x="44" y="60" font-size="28" font-family="Segoe UI, Arial, sans-serif" fill="#1f2933">Precision / Recall / F1</text><text x="44" y="88" font-size="14" font-family="Segoe UI, Arial, sans-serif" fill="#5b6570">Grouped view to compare trade-offs between kept models.</text><line x1="90" y1="450.0" x2="940" y2="450.0" stroke="#ece4d6"/><text x="78" y="454.0" text-anchor="end" font-size="12" font-family="Segoe UI, Arial, sans-serif" fill="#7b8794">0.0</text><line x1="90" y1="382.0" x2="940" y2="382.0" stroke="#ece4d6"/><text x="78" y="386.0" text-anchor="end" font-size="12" font-family="Segoe UI, Arial, sans-serif" fill="#7b8794">0.2</text><line x1="90" y1="314.0" x2="940" y2="314.0" stroke="#ece4d6"/><text x="78" y="318.0" text-anchor="end" font-size="12" font-family="Segoe UI, Arial, sans-serif" fill="#7b8794">0.4</text><line x1="90" y1="246.0" x2="940" y2="246.0" stroke="#ece4d6"/><text x="78" y="250.0" text-anchor="end" font-size="12" font-family="Segoe UI, Arial, sans-serif" fill="#7b8794">0.6</text><line x1="90" y1="178.0" x2="940" y2="178.0" stroke="#ece4d6"/><text x="78" y="182.0" text-anchor="end" font-size="12" font-family="Segoe UI, Arial, sans-serif" fill="#7b8794">0.8</text><line x1="90" y1="110.0" x2="940" y2="110.0" stroke="#ece4d6"/><text x="78" y="114.0" text-anchor="end" font-size="12" font-family="Segoe UI, Arial, sans-serif" fill="#7b8794">1.0</text><rect x="730" y="45" width="14" height="14" rx="3" fill="#0f766e"/><text x="752" y="56" font-size="13" font-family="Segoe UI, Arial, sans-serif" fill="#334e68">precision</text><rect x="730" y="69" width="14" height="14" rx="3" fill="#c2410c"/><text x="752" y="80" font-size="13" font-family="Segoe UI, Arial, sans-serif" fill="#334e68">recall</text><rect x="730" y="93" width="14" height="14" rx="3" fill="#1d4ed8"/><text x="752" y="104" font-size="13" font-family="Segoe UI, Arial, sans-serif" fill="#334e68">f1_score</text><rect x="103.2" y="268.7" width="42.5" height="181.3" rx="8" fill="#0f766e"/><text x="124.5" y="260.7" text-anchor="middle" font-size="11" font-family="Consolas, Courier New, monospace" fill="#102a43">0.533</text><rect x="153.8" y="147.8" width="42.5" height="302.2" rx="8" fill="#c2410c"/><text x="175.0" y="139.8" text-anchor="middle" font-size="11" font-family="Consolas, Courier New, monospace" fill="#102a43">0.889</text><rect x="204.2" y="223.3" width="42.5" height="226.7" rx="8" fill="#1d4ed8"/><text x="225.5" y="215.3" text-anchor="middle" font-size="11" font-family="Consolas, Courier New, monospace" fill="#102a43">0.667</text><text x="175.0" y="492" text-anchor="middle" font-size="13" font-family="Segoe UI, Arial, sans-serif" fill="#243b53">Soundex</text><rect x="273.2" y="178.0" width="42.5" height="272.0" rx="8" fill="#0f766e"/><text x="294.5" y="170.0" text-anchor="middle" font-size="11" font-family="Consolas, Courier New, monospace" fill="#102a43">0.800</text><rect x="323.8" y="298.9" width="42.5" height="151.1" rx="8" fill="#c2410c"/><text x="345.0" y="290.9" text-anchor="middle" font-size="11" font-family="Consolas, Courier New, monospace" fill="#102a43">0.444</text><rect x="374.2" y="255.7" width="42.5" height="194.3" rx="8" fill="#1d4ed8"/><text x="395.5" y="247.7" text-anchor="middle" font-size="11" font-family="Consolas, Courier New, monospace" fill="#102a43">0.571</text><text x="345.0" y="492" text-anchor="middle" font-size="13" font-family="Segoe UI, Arial, sans-serif" fill="#243b53">Levenshtein</text><rect x="443.2" y="195.0" width="42.5" height="255.0" rx="8" fill="#0f766e"/><text x="464.5" y="187.0" text-anchor="middle" font-size="11" font-family="Consolas, Courier New, monospace" fill="#102a43">0.750</text><rect x="493.8" y="336.7" width="42.5" height="113.3" rx="8" fill="#c2410c"/><text x="515.0" y="328.7" text-anchor="middle" font-size="11" font-family="Consolas, Courier New, monospace" fill="#102a43">0.333</text><rect x="544.2" y="293.1" width="42.5" height="156.9" rx="8" fill="#1d4ed8"/><text x="565.5" y="285.1" text-anchor="middle" font-size="11" font-family="Consolas, Courier New, monospace" fill="#102a43">0.462</text><text x="515.0" y="492" text-anchor="middle" font-size="13" font-family="Segoe UI, Arial, sans-serif" fill="#243b53">SequenceMatcher</text><rect x="613.2" y="246.0" width="42.5" height="204.0" rx="8" fill="#0f766e"/><text x="634.5" y="238.0" text-anchor="middle" font-size="11" font-family="Consolas, Courier New, monospace" fill="#102a43">0.600</text><rect x="663.8" y="336.7" width="42.5" height="113.3" rx="8" fill="#c2410c"/><text x="685.0" y="328.7" text-anchor="middle" font-size="11" font-family="Consolas, Courier New, monospace" fill="#102a43">0.333</text><rect x="714.2" y="304.3" width="42.5" height="145.7" rx="8" fill="#1d4ed8"/><text x="735.5" y="296.3" text-anchor="middle" font-size="11" font-family="Consolas, Courier New, monospace" fill="#102a43">0.429</text><text x="685.0" y="492" text-anchor="middle" font-size="13" font-family="Segoe UI, Arial, sans-serif" fill="#243b53">Name And Context</text><rect x="783.2" y="369.0" width="42.5" height="81.0" rx="8" fill="#0f766e"/><text x="804.5" y="361.0" text-anchor="middle" font-size="11" font-family="Consolas, Courier New, monospace" fill="#102a43">0.238</text><rect x="833.8" y="261.1" width="42.5" height="188.9" rx="8" fill="#c2410c"/><text x="855.0" y="253.1" text-anchor="middle" font-size="11" font-family="Consolas, Courier New, monospace" fill="#102a43">0.556</text><rect x="884.2" y="336.7" width="42.5" height="113.3" rx="8" fill="#1d4ed8"/><text x="905.5" y="328.7" text-anchor="middle" font-size="11" font-family="Consolas, Courier New, monospace" fill="#102a43">0.333</text><text x="855.0" y="492" text-anchor="middle" font-size="13" font-family="Segoe UI, Arial, sans-serif" fill="#243b53">spaCy</text></svg>