<svg xmlns="http://www.w3.org/2000/svg" width="980" height="680" viewBox="0 0 980 680" role="img"><rect width="100%" height="100%" fill="#f7f3eb"/><rect x="22" y="22" width="936" height="636" rx="20" fill="#fffdf8" stroke="#d9cfbd"/><text x="44" y="60" font-size="28" font-family="Segoe UI, Arial, sans-serif" fill="#1f2933">Error Profile Radar</text><text x="44" y="88" font-size="14" font-family="Segoe UI, Arial, sans-serif" fill="#5b6570">For false rates, lower is better. Outer area means larger value.</text><polygon points="490.0,318.0 529.9,347.0 514.7,394.0 465.3,394.0 450.1,347.0" fill="none" stroke="#e8dfd0" stroke-width="1"/><text x="496" y="322.0" font-size="11" font-family="Segoe UI, Arial, sans-serif" fill="#7b8794">0.2</text><polygon points="490.0,276.0 569.9,334.0 539.4,428.0 440.6,428.0 410.1,334.0" fill="none" stroke="#e8dfd0" stroke-width="1"/><text x="496" y="280.0" font-size="11" font-family="Segoe UI, Arial, sans-serif" fill="#7b8794">0.4</text><polygon points="490.0,234.0 609.8,321.1 564.1,461.9 415.9,461.9 370.2,321.1" fill="none" stroke="#e8dfd0" stroke-width="1"/><text x="496" y="238.0" font-size="11" font-family="Segoe UI, Arial, sans-serif" fill="#7b8794">0.6</text><polygon points="490.0,192.0 649.8,308.1 588.7,495.9 391.3,495.9 330.2,308.1" fill="none" stroke="#e8dfd0" stroke-width="1"/><text x="496" y="196.0" font-size="11" font-family="Segoe UI, Arial, sans-serif" fill="#7b8794">0.8</text><polygon points="490.0,150.0 689.7,295.1 613.4,529.9 366.6,529.9 290.3,295.1" fill="none" stroke="#e8dfd0" stroke-width="1"/><text x="496" y="154.0" font-size="11" font-family="Segoe UI, Arial, sans-serif" fill="#7b8794">1.0</text><line x1="490" y1="360" x2="490.0" y2="150.0" stroke="#ddd3c2"/><text x="490.0" y="150.0" text-anchor="middle" font-size="14" font-family="Segoe UI, Arial, sans-serif" fill="#243b53">Precision</text><line x1="490" y1="360" x2="689.7" y2="295.1" stroke="#ddd3c2"/><text x="689.7" y="295.1" text-anchor="start" font-size="14" font-family="Segoe UI, Arial, sans-serif" fill="#243b53">Recall</text><line x1="490" y1="360" x2="613.4" y2="529.9" stroke="#ddd3c2"/><text x="613.4" y="529.9" text-anchor="start" font-size="14" font-family="Segoe UI, Arial, sans-serif" fill="#243b53">F1</text><line x1="490" y1="360" x2="366.6" y2="529.9" stroke="#ddd3c2"/><text x="366.6" y="529.9" text-anchor="end" font-size="14" font-family="Segoe UI, Arial, sans-serif" fill="#243b53">False Merge</text><line x1="490" y1="360" x2="290.3" y2="295.1" stroke="#ddd3c2"/><text x="290.3" y="295.1" text-anchor="end" font-size="14" font-family="Segoe UI, Arial, sans-serif" fill="#243b53">False Split</text><polygon points="490.0,150.0 689.7,295.1 613.4,529.9 366.6,529.9 290.3,295.1" fill="#1d4ed8" fill-opacity="0.18" stroke="#1d4ed8" stroke-width="3"/><circle cx="490.0" cy="150.0" r="4" fill="#1d4ed8"/><circle cx="689.7" cy="295.1" r="4" fill="#1d4ed8"/><circle cx="613.4" cy="529.9" r="4" fill="#1d4ed8"/><circle cx="366.6" cy="529.9" r="4" fill="#1d4ed8"/><circle cx="290.3" cy="295.1" r="4" fill="#1d4ed8"/><polygon points="490.0,220.0 661.2,304.4 582.6,487.4 407.7,473.3 318.8,304.4" fill="#c2410c" fill-opacity="0.18" stroke="#c2410c" stroke-width="3"/><circle cx="490.0" cy="220.0" r="4" fill="#c2410c"/><circle cx="661.2" cy="304.4" r="4" fill="#c2410c"/><circle cx="582.6" cy="487.4" r="4" fill="#c2410c"/><circle cx="407.7" cy="473.3" r="4" fill="#c2410c"/><circle cx="318.8" cy="304.4" r="4" fill="#c2410c"/><polygon points="490.0,150.0 604.1,322.9 579.8,483.6 366.6,529.9 375.9,322.9" fill="#0f766e" fill-opacity="0.18" stroke="#0f766e" stroke-width="3"/><circle cx="490.0" cy="150.0" r="4" fill="#0f766e"/><circle cx="604.1" cy="322.9" r="4" fill="#0f766e"/><circle cx="579.8" cy="483.6" r="4" fill="#0f766e"/><circle cx="366.6" cy="529.9" r="4" fill="#0f766e"/><circle cx="375.9" cy="322.9" r="4" fill="#0f766e"/><polygon points="490.0,150.0 604.1,322.9 579.8,483.6 366.6,529.9 375.9,322.9" fill="#1d4ed8" fill-opacity="0.18" stroke="#1d4ed8" stroke-width="3"/><circle cx="490.0" cy="150.0" r="4" fill="#1d4ed8"/><circle cx="604.1" cy="322.9" r="4" fill="#1d4ed8"/><circle cx="579.8" cy="483.6" r="4" fill="#1d4ed8"/><circle cx="366.6" cy="529.9" r="4" fill="#1d4ed8"/><circle cx="375.9" cy="322.9" r="4" fill="#1d4ed8"/><polygon points="490.0,150.0 589.9,327.6 572.3,473.3 366.6,529.9 390.1,327.6" fill="#c2410c" fill-opacity="0.18" stroke="#c2410c" stroke-width="3"/><circle cx="490.0" cy="150.0" r="4" fill="#c2410c"/><circle cx="589.9" cy="327.6" r="4" fill="#c2410c"/><circle cx="572.3" cy="473.3" r="4" fill="#c2410c"/><circle cx="366.6" cy="529.9" r="4" fill="#c2410c"/><circle cx="390.1" cy="327.6" r="4" fill="#c2410c"/><polygon points="490.0,150.0 532.8,346.1 533.6,420.0 366.6,529.9 447.2,346.1" fill="#0f766e" fill-opacity="0.18" stroke="#0f766e" stroke-width="3"/><circle cx="490.0" cy="150.0" r="4" fill="#0f766e"/><circle cx="532.8" cy="346.1" r="4" fill="#0f766e"/><circle cx="533.6" cy="420.0" r="4" fill="#0f766e"/><circle cx="366.6" cy="529.9" r="4" fill="#0f766e"/><circle cx="447.2" cy="346.1" r="4" fill="#0f766e"/><rect x="740" y="139" width="14" height="14" rx="3" fill="#1d4ed8"/><text x="762" y="150" font-size="13" font-family="Segoe UI, Arial, sans-serif" fill="#334e68">Soundex</text><rect x="740" y="167" width="14" height="14" rx="3" fill="#c2410c"/><text x="762" y="178" font-size="13" font-family="Segoe UI, Arial, sans-serif" fill="#334e68">spaCy</text><rect x="740" y="195" width="14" height="14" rx="3" fill="#0f766e"/><text x="762" y="206" font-size="13" font-family="Segoe UI, Arial, sans-serif" fill="#334e68">Name And Context</text><rect x="740" y="223" width="14" height="14" rx="3" fill="#1d4ed8"/><text x="762" y="234" font-size="13" font-family="Segoe UI, Arial, sans-serif" fill="#334e68">SequenceMatcher</text><rect x="740" y="251" width="14" height="14" rx="3" fill="#c2410c"/><text x="762" y="262" font-size="13" font-family="Segoe UI, Arial, sans-serif" fill="#334e68">Levenshtein</text><rect x="740" y="279" width="14" height="14" rx="3" fill="#0f766e"/><text x="762" y="290" font-size="13" font-family="Segoe UI, Arial, sans-serif" fill="#334e68">Name Similarity</text></svg>