<svg xmlns="http://www.w3.org/2000/svg" width="980" height="680" viewBox="0 0 980 680" role="img"><rect width="100%" height="100%" fill="#f7f3eb"/><rect x="22" y="22" width="936" height="636" rx="20" fill="#fffdf8" stroke="#d9cfbd"/><text x="44" y="60" font-size="28" font-family="Segoe UI, Arial, sans-serif" fill="#1f2933">Error Profile Radar</text><text x="44" y="88" font-size="14" font-family="Segoe UI, Arial, sans-serif" fill="#5b6570">For false rates, lower is better. Outer area means larger value.</text><polygon points="490.0,318.0 529.9,347.0 514.7,394.0 465.3,394.0 450.1,347.0" fill="none" stroke="#e8dfd0" stroke-width="1"/><text x="496" y="322.0" font-size="11" font-family="Segoe UI, Arial, sans-serif" fill="#7b8794">0.2</text><polygon points="490.0,276.0 569.9,334.0 539.4,428.0 440.6,428.0 410.1,334.0" fill="none" stroke="#e8dfd0" stroke-width="1"/><text x="496" y="280.0" font-size="11" font-family="Segoe UI, Arial, sans-serif" fill="#7b8794">0.4</text><polygon points="490.0,234.0 609.8,321.1 564.1,461.9 415.9,461.9 370.2,321.1" fill="none" stroke="#e8dfd0" stroke-width="1"/><text x="496" y="238.0" font-size="11" font-family="Segoe UI, Arial, sans-serif" fill="#7b8794">0.6</text><polygon points="490.0,192.0 649.8,308.1 588.7,495.9 391.3,495.9 330.2,308.1" fill="none" stroke="#e8dfd0" stroke-width="1"/><text x="496" y="196.0" font-size="11" font-family="Segoe UI, Arial, sans-serif" fill="#7b8794">0.8</text><polygon points="490.0,150.0 689.7,295.1 613.4,529.9 366.6,529.9 290.3,295.1" fill="none" stroke="#e8dfd0" stroke-width="1"/><text x="496" y="154.0" font-size="11" font-family="Segoe UI, Arial, sans-serif" fill="#7b8794">1.0</text><line x1="490" y1="360" x2="490.0" y2="150.0" stroke="#ddd3c2"/><text x="490.0" y="150.0" text-anchor="middle" font-size="14" font-family="Segoe UI, Arial, sans-serif" fill="#243b53">Precision</text><line x1="490" y1="360" x2="689.7" y2="295.1" stroke="#ddd3c2"/><text x="689.7" y="295.1" text-anchor="start" font-size="14" font-family="Segoe UI, Arial, sans-serif" fill="#243b53">Recall</text><line x1="490" y1="360" x2="613.4" y2="529.9" stroke="#ddd3c2"/><text x="613.4" y="529.9" text-anchor="start" font-size="14" font-family="Segoe UI, Arial, sans-serif" fill="#243b53">F1</text><line x1="490" y1="360" x2="366.6" y2="529.9" stroke="#ddd3c2"/><text x="366.6" y="529.9" text-anchor="end" font-size="14" font-family="Segoe UI, Arial, sans-serif" fill="#243b53">False Merge</text><line x1="490" y1="360" x2="290.3" y2="295.1" stroke="#ddd3c2"/><text x="290.3" y="295.1" text-anchor="end" font-size="14" font-family="Segoe UI, Arial, sans-serif" fill="#243b53">False Split</text><polygon points="490.0,272.5 492.5,359.2 493.0,364.1 438.6,430.8 487.5,359.2" fill="#1d4ed8" fill-opacity="0.18" stroke="#1d4ed8" stroke-width="3"/><circle cx="490.0" cy="272.5" r="4" fill="#1d4ed8"/><circle cx="492.5" cy="359.2" r="4" fill="#1d4ed8"/><circle cx="493.0" cy="364.1" r="4" fill="#1d4ed8"/><circle cx="438.6" cy="430.8" r="4" fill="#1d4ed8"/><circle cx="487.5" cy="359.2" r="4" fill="#1d4ed8"/><polygon points="490.0,240.0 492.0,359.4 492.4,363.3 419.5,457.1 488.0,359.4" fill="#c2410c" fill-opacity="0.18" stroke="#c2410c" stroke-width="3"/><circle cx="490.0" cy="240.0" r="4" fill="#c2410c"/><circle cx="492.0" cy="359.4" r="4" fill="#c2410c"/><circle cx="492.4" cy="363.3" r="4" fill="#c2410c"/><circle cx="419.5" cy="457.1" r="4" fill="#c2410c"/><circle cx="488.0" cy="359.4" r="4" fill="#c2410c"/><polygon points="490.0,350.3 492.0,359.4 492.0,362.8 484.3,367.8 488.0,359.4" fill="#0f766e" fill-opacity="0.18" stroke="#0f766e" stroke-width="3"/><circle cx="490.0" cy="350.3" r="4" fill="#0f766e"/><circle cx="492.0" cy="359.4" r="4" fill="#0f766e"/><circle cx="492.0" cy="362.8" r="4" fill="#0f766e"/><circle cx="484.3" cy="367.8" r="4" fill="#0f766e"/><circle cx="488.0" cy="359.4" r="4" fill="#0f766e"/><polygon points="490.0,234.0 491.5,359.5 491.8,362.5 415.9,461.9 488.5,359.5" fill="#1d4ed8" fill-opacity="0.18" stroke="#1d4ed8" stroke-width="3"/><circle cx="490.0" cy="234.0" r="4" fill="#1d4ed8"/><circle cx="491.5" cy="359.5" r="4" fill="#1d4ed8"/><circle cx="491.8" cy="362.5" r="4" fill="#1d4ed8"/><circle cx="415.9" cy="461.9" r="4" fill="#1d4ed8"/><circle cx="488.5" cy="359.5" r="4" fill="#1d4ed8"/><polygon points="490.0,290.0 491.0,359.7 491.2,361.7 448.9,416.6 489.0,359.7" fill="#c2410c" fill-opacity="0.18" stroke="#c2410c" stroke-width="3"/><circle cx="490.0" cy="290.0" r="4" fill="#c2410c"/><circle cx="491.0" cy="359.7" r="4" fill="#c2410c"/><circle cx="491.2" cy="361.7" r="4" fill="#c2410c"/><circle cx="448.9" cy="416.6" r="4" fill="#c2410c"/><circle cx="489.0" cy="359.7" r="4" fill="#c2410c"/><rect x="740" y="139" width="14" height="14" rx="3" fill="#1d4ed8"/><text x="762" y="150" font-size="13" font-family="Segoe UI, Arial, sans-serif" fill="#334e68">Soundex</text><rect x="740" y="167" width="14" height="14" rx="3" fill="#c2410c"/><text x="762" y="178" font-size="13" font-family="Segoe UI, Arial, sans-serif" fill="#334e68">Levenshtein</text><rect x="740" y="195" width="14" height="14" rx="3" fill="#0f766e"/><text x="762" y="206" font-size="13" font-family="Segoe UI, Arial, sans-serif" fill="#334e68">spaCy</text><rect x="740" y="223" width="14" height="14" rx="3" fill="#1d4ed8"/><text x="762" y="234" font-size="13" font-family="Segoe UI, Arial, sans-serif" fill="#334e68">SequenceMatcher</text><rect x="740" y="251" width="14" height="14" rx="3" fill="#c2410c"/><text x="762" y="262" font-size="13" font-family="Segoe UI, Arial, sans-serif" fill="#334e68">Name And Context</text></svg>