<svg xmlns="http://www.w3.org/2000/svg" width="980" height="520" viewBox="0 0 980 520" role="img"><rect width="100%" height="100%" fill="#f5efe4"/><rect x="22" y="22" width="936" height="476" rx="20" fill="#fffdf8" stroke="#d9cfbd"/><text x="44" y="60" font-size="28" font-family="Segoe UI, Arial, sans-serif" fill="#1f2933">Precision / Recall / F1</text><text x="44" y="88" font-size="14" font-family="Segoe UI, Arial, sans-serif" fill="#5b6570">Grouped view to compare trade-offs between kept models.</text><line x1="90" y1="450.0" x2="940" y2="450.0" stroke="#ece4d6"/><text x="78" y="454.0" text-anchor="end" font-size="12" font-family="Segoe UI, Arial, sans-serif" fill="#7b8794">0.0</text><line x1="90" y1="382.0" x2="940" y2="382.0" stroke="#ece4d6"/><text x="78" y="386.0" text-anchor="end" font-size="12" font-family="Segoe UI, Arial, sans-serif" fill="#7b8794">0.2</text><line x1="90" y1="314.0" x2="940" y2="314.0" stroke="#ece4d6"/><text x="78" y="318.0" text-anchor="end" font-size="12" font-family="Segoe UI, Arial, sans-serif" fill="#7b8794">0.4</text><line x1="90" y1="246.0" x2="940" y2="246.0" stroke="#ece4d6"/><text x="78" y="250.0" text-anchor="end" font-size="12" font-family="Segoe UI, Arial, sans-serif" fill="#7b8794">0.6</text><line x1="90" y1="178.0" x2="940" y2="178.0" stroke="#ece4d6"/><text x="78" y="182.0" text-anchor="end" font-size="12" font-family="Segoe UI, Arial, sans-serif" fill="#7b8794">0.8</text><line x1="90" y1="110.0" x2="940" y2="110.0" stroke="#ece4d6"/><text x="78" y="114.0" text-anchor="end" font-size="12" font-family="Segoe UI, Arial, sans-serif" fill="#7b8794">1.0</text><rect x="730" y="45" width="14" height="14" rx="3" fill="#0f766e"/><text x="752" y="56" font-size="13" font-family="Segoe UI, Arial, sans-serif" fill="#334e68">precision</text><rect x="730" y="69" width="14" height="14" rx="3" fill="#c2410c"/><text x="752" y="80" font-size="13" font-family="Segoe UI, Arial, sans-serif" fill="#334e68">recall</text><rect x="730" y="93" width="14" height="14" rx="3" fill="#1d4ed8"/><text x="752" y="104" font-size="13" font-family="Segoe UI, Arial, sans-serif" fill="#334e68">f1_score</text><rect x="99.7" y="110.0" width="35.4" height="340.0" rx="8" fill="#0f766e"/><text x="117.4" y="102.0" text-anchor="middle" font-size="11" font-family="Consolas, Courier New, monospace" fill="#102a43">1.000</text><rect x="143.1" y="110.0" width="35.4" height="340.0" rx="8" fill="#c2410c"/><text x="160.8" y="102.0" text-anchor="middle" font-size="11" font-family="Consolas, Courier New, monospace" fill="#102a43">1.000</text><rect x="186.5" y="110.0" width="35.4" height="340.0" rx="8" fill="#1d4ed8"/><text x="204.2" y="102.0" text-anchor="middle" font-size="11" font-family="Consolas, Courier New, monospace" fill="#102a43">1.000</text><text x="160.8" y="492" text-anchor="middle" font-size="13" font-family="Segoe UI, Arial, sans-serif" fill="#243b53">Soundex</text><rect x="241.4" y="223.3" width="35.4" height="226.7" rx="8" fill="#0f766e"/><text x="259.1" y="215.3" text-anchor="middle" font-size="11" font-family="Consolas, Courier New, monospace" fill="#102a43">0.667</text><rect x="284.8" y="158.6" width="35.4" height="291.4" rx="8" fill="#c2410c"/><text x="302.5" y="150.6" text-anchor="middle" font-size="11" font-family="Consolas, Courier New, monospace" fill="#102a43">0.857</text><rect x="328.2" y="195.0" width="35.4" height="255.0" rx="8" fill="#1d4ed8"/><text x="345.9" y="187.0" text-anchor="middle" font-size="11" font-family="Consolas, Courier New, monospace" fill="#102a43">0.750</text><text x="302.5" y="492" text-anchor="middle" font-size="13" font-family="Segoe UI, Arial, sans-serif" fill="#243b53">spaCy</text><rect x="383.0" y="110.0" width="35.4" height="340.0" rx="8" fill="#0f766e"/><text x="400.7" y="102.0" text-anchor="middle" font-size="11" font-family="Consolas, Courier New, monospace" fill="#102a43">1.000</text><rect x="426.5" y="255.7" width="35.4" height="194.3" rx="8" fill="#c2410c"/><text x="444.2" y="247.7" text-anchor="middle" font-size="11" font-family="Consolas, Courier New, monospace" fill="#102a43">0.571</text><rect x="469.9" y="202.7" width="35.4" height="247.3" rx="8" fill="#1d4ed8"/><text x="487.6" y="194.7" text-anchor="middle" font-size="11" font-family="Consolas, Courier New, monospace" fill="#102a43">0.727</text><text x="444.2" y="492" text-anchor="middle" font-size="13" font-family="Segoe UI, Arial, sans-serif" fill="#243b53">Name And Context</text><rect x="524.7" y="110.0" width="35.4" height="340.0" rx="8" fill="#0f766e"/><text x="542.4" y="102.0" text-anchor="middle" font-size="11" font-family="Consolas, Courier New, monospace" fill="#102a43">1.000</text><rect x="568.1" y="255.7" width="35.4" height="194.3" rx="8" fill="#c2410c"/><text x="585.8" y="247.7" text-anchor="middle" font-size="11" font-family="Consolas, Courier New, monospace" fill="#102a43">0.571</text><rect x="611.5" y="202.7" width="35.4" height="247.3" rx="8" fill="#1d4ed8"/><text x="629.2" y="194.7" text-anchor="middle" font-size="11" font-family="Consolas, Courier New, monospace" fill="#102a43">0.727</text><text x="585.8" y="492" text-anchor="middle" font-size="13" font-family="Segoe UI, Arial, sans-serif" fill="#243b53">SequenceMatcher</text><rect x="666.4" y="110.0" width="35.4" height="340.0" rx="8" fill="#0f766e"/><text x="684.1" y="102.0" text-anchor="middle" font-size="11" font-family="Consolas, Courier New, monospace" fill="#102a43">1.000</text><rect x="709.8" y="280.0" width="35.4" height="170.0" rx="8" fill="#c2410c"/><text x="727.5" y="272.0" text-anchor="middle" font-size="11" font-family="Consolas, Courier New, monospace" fill="#102a43">0.500</text><rect x="753.2" y="223.3" width="35.4" height="226.7" rx="8" fill="#1d4ed8"/><text x="770.9" y="215.3" text-anchor="middle" font-size="11" font-family="Consolas, Courier New, monospace" fill="#102a43">0.667</text><text x="727.5" y="492" text-anchor="middle" font-size="13" font-family="Segoe UI, Arial, sans-serif" fill="#243b53">Levenshtein</text><rect x="808.0" y="110.0" width="35.4" height="340.0" rx="8" fill="#0f766e"/><text x="825.8" y="102.0" text-anchor="middle" font-size="11" font-family="Consolas, Courier New, monospace" fill="#102a43">1.000</text><rect x="851.5" y="377.1" width="35.4" height="72.9" rx="8" fill="#c2410c"/><text x="869.2" y="369.1" text-anchor="middle" font-size="11" font-family="Consolas, Courier New, monospace" fill="#102a43">0.214</text><rect x="894.9" y="330.0" width="35.4" height="120.0" rx="8" fill="#1d4ed8"/><text x="912.6" y="322.0" text-anchor="middle" font-size="11" font-family="Consolas, Courier New, monospace" fill="#102a43">0.353</text><text x="869.2" y="492" text-anchor="middle" font-size="13" font-family="Segoe UI, Arial, sans-serif" fill="#243b53">Name Similarity</text></svg>